In the aftermath of WWII, a former circus entertainer who was spared from the gas chamber becomes the ringleader at an asylum for Holocaust survivors.
 
http://www.imdb.com/title/tt0479341/

Subs: Dutch, English (srt).


In de nasleep van de Tweede Oorlog kijkt Adam Stein (Goldblum) terug op de jaren die in zijn gedachten haast eeuwen lijken. Ironisch genoeg spaarde de Nazi's hem, omdat hij als voormalig circusartiest de overige Joden nog kon vermaken op weg naar de gaskamers. Nu, na de oorlog zit Adam in een centrum voor overlevenden van de Holocaust en probeert zijn gedachten weer op orde te krijgen.
 
http://www.moviemeter.nl/film/42336

Ondertitels : Engels, Nederlands.

General
Complete name                    : Adam Resurrected-AC3-XviD-DVDRip 2008 TBS\Adam Resurrected-AC3-XviD-DVDRip 2008 TBS.avi
Format                           : AVI
Format/Info                      : Audio Video Interleave
File size                        : 1.46 GiB
Duration                         : 1h 42mn
Overall bit rate                 : 2 047 Kbps
Writing application              : VirtualDubMod 1.5.4.1 (build 2178/release)
Writing library                  : VirtualDubMod build 2178/release

Video
ID                               : 0
Format                           : MPEG-4 Visual
Format profile                   : Simple@L3
Format settings, BVOP            : No
Format settings, QPel            : No
Format settings, GMC             : No warppoints
Format settings, Matrix          : Default (H.263)
Codec ID                         : XVID
Codec ID/Hint                    : XviD
Duration                         : 1h 42mn
Bit rate                         : 1 589 Kbps
Width                            : 720 pixels
Height                           : 304 pixels
Display aspect ratio             : 2.35:1
Frame rate                       : 25.000 fps
Resolution                       : 8 bits
Colorimetry                      : 4:2:0
Scan type                        : Progressive
Bits/(Pixel*Frame)               : 0.290
Stream size                      : 1.13 GiB (78%)
Writing library                  : XviD 1.1.2 (UTC 2006-11-01)

Audio
ID                               : 1
Format                           : AC-3
Format/Info                      : Audio Coding 3
Codec ID                         : 2000
Duration                         : 1h 42mn
Bit rate mode                    : Constant
Bit rate                         : 448 Kbps
Channel(s)                       : 6 channels
Channel positions                : Front: L C R, Surround: L R, LFE
Sampling rate                    : 48.0 KHz
Stream size                      : 327 MiB (22%)
Alignment                        : Split accross interleaves
Interleave, duration             : 40 ms (1.00 video frame)
Interleave, preload duration     : 500 ms

Thanks to Just_4_fun_Team.

Blackbeard  TBS.